<svg width="308" height="249" viewBox="0 0 308 249" fill="none" xmlns="http://www.w3.org/2000/svg">
<path d="M307.928 17.3127C238.957 17.3127 261.265 95.7718 196.089 95.7718C153.359 95.7718 134.046 59.3533 84.2474 70.2885C38.2277 80.3924 30.4358 138.435 0.490662 166.538" stroke="#B0F3FF" stroke-width="0.5" stroke-miterlimit="10"/>
<path d="M220.016 28.8033C217.643 29.7063 215.346 30.7962 213.146 32.0625C206.307 36.075 200.511 41.6426 196.229 48.3132C184.58 65.9893 183.893 87.6978 183.886 87.919L251.4 127.121C251.4 126.9 252.092 105.194 263.741 87.5142C268.025 80.8438 273.822 75.2767 280.663 71.2647C282.862 69.9976 285.16 68.9073 287.532 68.0043L220.016 28.8033Z" fill="url(#paint0_linear_10_330)"/>
<path d="M246.011 97.5782C246.118 97.2714 246.239 96.9578 246.353 96.6476L196.694 67.8127C196.58 68.1229 196.466 68.4354 196.351 68.7433L246.011 97.5782Z" fill="#C5CDE0"/>
<path d="M242.671 109.965C242.736 109.634 242.805 109.296 242.877 108.955L193.207 80.1154C193.137 80.4575 193.066 80.7996 193.002 81.1269L242.671 109.965Z" fill="#C5CDE0"/>
<path d="M243.441 106.422C243.518 106.092 243.596 105.765 243.678 105.431L194.012 76.5938C193.928 76.9279 193.851 77.2552 193.773 77.5848L243.441 106.422Z" fill="#C5CDE0"/>
<path d="M244.533 102.238C244.623 101.92 244.72 101.596 244.817 101.275L195.153 72.4371C195.056 72.7598 194.96 73.0803 194.869 73.3984L244.533 102.238Z" fill="#C5CDE0"/>
<path d="M253.331 82.4383C253.392 82.3459 253.446 82.2547 253.505 82.1646C253.627 81.9799 253.757 81.8077 253.879 81.6286L204.231 52.8029C204.095 53.0036 203.952 53.194 203.817 53.3959C203.77 53.4689 203.728 53.5396 203.681 53.6114L253.331 82.4383Z" fill="#C5CDE0"/>
<path d="M250.358 87.5187C250.509 87.2313 250.664 86.9485 250.815 86.6577L201.167 57.8297C201.01 58.1171 200.853 58.3999 200.702 58.6884L250.358 87.5187Z" fill="#C5CDE0"/>
<path d="M247.934 92.6209C248.062 92.3198 248.195 92.0199 248.329 91.72L198.674 62.8896C198.54 63.1896 198.406 63.4872 198.278 63.7883L247.934 92.6209Z" fill="#C5CDE0"/>
<path d="M215.307 40.8287C215.032 41.0431 214.76 41.2632 214.49 41.4833L264.113 70.2988C264.386 70.0707 264.658 69.8575 264.932 69.6419L215.307 40.8287Z" fill="#C5CDE0"/>
<path d="M212.342 43.341C212.089 43.5691 211.829 43.7972 211.581 44.0252L261.211 72.8396C261.459 72.6047 261.72 72.3834 261.97 72.1554L212.342 43.341Z" fill="#C5CDE0"/>
<path d="M209.514 46.1259C209.286 46.3665 209.075 46.6242 208.852 46.8717L258.49 75.6917C258.712 75.4454 258.924 75.1854 259.149 74.9459L209.514 46.1259Z" fill="#C5CDE0"/>
<path d="M206.88 49.2072C206.677 49.4627 206.475 49.7227 206.274 49.9838L255.915 78.8061C256.115 78.5454 256.317 78.2869 256.521 78.0307L206.88 49.2072Z" fill="#C5CDE0"/>
<path d="M254.8 124.039L184.06 83.2297C182.546 82.4606 180.871 82.0602 179.172 82.0614C177.474 82.0626 175.799 82.4653 174.286 83.2366L59.7909 149.722C57.1019 151.282 57.1168 153.812 59.8229 155.372L130.564 196.179C132.077 196.95 133.752 197.352 135.45 197.352C137.149 197.352 138.824 196.95 140.337 196.179L254.831 129.694C257.529 128.134 257.516 125.606 254.8 124.039Z" fill="url(#paint1_linear_10_330)"/>
<path d="M254.831 129.7L140.337 196.179C138.824 196.95 137.149 197.351 135.45 197.351C133.752 197.351 132.077 196.95 130.564 196.179L59.8229 155.371C59.2593 155.121 58.773 154.725 58.4146 154.223C58.0561 153.722 57.8385 153.134 57.7844 152.52C57.7696 157.497 57.7936 157.255 57.7776 162.232C57.8321 162.845 58.05 163.433 58.4087 163.935C58.7673 164.436 59.2536 164.832 59.8172 165.083L130.558 205.89C132.071 206.662 133.746 207.064 135.445 207.064C137.144 207.064 138.818 206.662 140.331 205.89L254.828 139.406C255.382 139.156 255.86 138.765 256.213 138.271C256.567 137.777 256.783 137.199 256.84 136.594C256.856 131.62 256.831 131.86 256.846 126.883C256.79 127.489 256.574 128.069 256.22 128.563C255.866 129.058 255.386 129.451 254.831 129.7Z" fill="url(#paint2_linear_10_330)"/>
<path d="M254.831 129.7L140.337 196.179C138.824 196.95 137.149 197.352 135.45 197.352C133.752 197.352 132.077 196.95 130.564 196.179L59.8229 155.371C59.2593 155.121 58.773 154.725 58.4146 154.223C58.0561 153.722 57.8385 153.134 57.7844 152.52C57.7844 153.066 57.7844 153.613 57.7776 154.158C57.8756 154.723 58.109 155.256 58.4578 155.711C58.8066 156.167 59.2604 156.531 59.7806 156.774L130.519 197.582C132.033 198.353 133.708 198.755 135.407 198.755C137.106 198.755 138.781 198.353 140.295 197.582L254.789 131.097C255.343 130.848 255.822 130.456 256.176 129.962C256.529 129.467 256.746 128.888 256.802 128.283C256.802 127.892 256.802 127.5 256.802 127.11C256.705 127.668 256.476 128.194 256.133 128.645C255.79 129.095 255.343 129.457 254.831 129.7Z" fill="white"/>
<path d="M242.561 126.452L179.94 90.3264C179.137 89.9174 178.248 89.7042 177.346 89.7042C176.445 89.7042 175.556 89.9174 174.753 90.3264L155.161 101.703C153.734 102.531 153.743 103.87 155.186 104.706L217.805 140.826C218.607 141.236 219.496 141.451 220.397 141.452C221.298 141.453 222.187 141.24 222.99 140.832L242.583 129.456C244.011 128.624 243.994 127.279 242.561 126.452Z" fill="url(#paint3_linear_10_330)"/>
<path d="M155.138 102.945L174.731 91.5694C175.534 91.1596 176.423 90.946 177.324 90.946C178.226 90.946 179.115 91.1596 179.917 91.5694L242.535 127.693C242.923 127.901 243.24 128.218 243.449 128.605C243.856 127.869 243.563 127.032 242.555 126.448L179.94 90.3264C179.137 89.9174 178.248 89.7042 177.346 89.7042C176.445 89.7042 175.556 89.9174 174.753 90.3264L155.161 101.703C154.185 102.273 153.898 103.071 154.265 103.794C154.472 103.437 154.774 103.143 155.138 102.945Z" fill="#F46793"/>
<path d="M133.012 117.577L144.526 124.22C145.328 124.628 146.215 124.841 147.115 124.841C148.015 124.841 148.902 124.628 149.704 124.22L155.083 121.095C156.519 120.264 156.51 118.921 155.074 118.095L143.56 111.448C142.756 111.037 141.866 110.823 140.963 110.823C140.06 110.823 139.17 111.037 138.366 111.448L132.988 114.571C131.561 115.404 131.568 116.745 133.012 117.577Z" fill="url(#paint4_linear_10_330)"/>
<path d="M119.464 125.444L130.979 132.084C131.783 132.493 132.671 132.706 133.573 132.706C134.475 132.706 135.363 132.493 136.167 132.084L141.543 128.962C142.97 128.135 142.961 126.795 141.526 125.965L130.007 119.316C129.204 118.906 128.316 118.692 127.415 118.691C126.514 118.69 125.625 118.902 124.822 119.311L119.443 122.434C118.023 123.264 118.023 124.61 119.464 125.444Z" fill="url(#paint5_linear_10_330)"/>
<path d="M152.515 128.828L164.029 135.47C164.831 135.879 165.718 136.092 166.618 136.092C167.518 136.092 168.405 135.879 169.207 135.47L174.586 132.346C176.02 131.514 176.013 130.173 174.577 129.345L163.062 122.702C162.258 122.292 161.368 122.078 160.466 122.078C159.563 122.078 158.673 122.292 157.869 122.702L152.491 125.825C151.063 126.655 151.07 127.994 152.515 128.828Z" fill="url(#paint6_linear_10_330)"/>
<path d="M105.925 133.306L117.438 139.948C118.241 140.356 119.128 140.568 120.028 140.568C120.928 140.568 121.816 140.356 122.618 139.948L128.004 136.82C129.429 135.991 129.424 134.654 127.987 133.822L116.472 127.185C115.669 126.776 114.78 126.563 113.879 126.563C112.978 126.563 112.09 126.776 111.287 127.185L105.9 130.314C104.473 131.131 104.481 132.472 105.925 133.306Z" fill="url(#paint7_linear_10_330)"/>
<path d="M92.3851 141.167L103.899 147.809C104.701 148.218 105.588 148.431 106.488 148.431C107.388 148.431 108.275 148.218 109.077 147.809L114.465 144.682C115.89 143.855 115.883 142.515 114.447 141.685L102.934 135.042C102.131 134.633 101.242 134.419 100.341 134.419C99.4391 134.419 98.5502 134.633 97.7471 135.042L92.36 138.169C90.9345 138.995 90.9413 140.335 92.3851 141.167Z" fill="url(#paint8_linear_10_330)"/>
<path d="M150.482 143.335C151.286 143.744 152.174 143.956 153.075 143.956C153.977 143.956 154.865 143.744 155.669 143.335L161.047 140.211C162.473 139.384 162.465 138.044 161.029 137.215L149.515 130.572C148.711 130.164 147.823 129.951 146.922 129.951C146.021 129.951 145.133 130.164 144.329 130.572L138.95 133.696C137.524 134.522 137.524 135.862 138.966 136.701L150.482 143.335Z" fill="url(#paint9_linear_10_330)"/>
<path d="M172.017 140.072L183.532 146.713C184.334 147.122 185.221 147.336 186.121 147.336C187.021 147.336 187.909 147.122 188.71 146.713L194.089 143.592C195.523 142.758 195.516 141.418 194.079 140.589L182.565 133.95C181.762 133.538 180.871 133.323 179.968 133.323C179.065 133.323 178.175 133.538 177.371 133.95L171.991 137.07C170.565 137.905 170.573 139.247 172.017 140.072Z" fill="url(#paint10_linear_10_330)"/>
<path d="M130.79 138.426L125.402 141.553C123.976 142.383 123.984 143.72 125.427 144.556L136.94 151.198C137.743 151.607 138.63 151.82 139.531 151.82C140.431 151.82 141.319 151.607 142.121 151.198L147.506 148.071C148.932 147.242 148.926 145.905 147.489 145.073L135.975 138.432C135.172 138.022 134.284 137.807 133.383 137.806C132.482 137.805 131.593 138.018 130.79 138.426Z" fill="url(#paint11_linear_10_330)"/>
<path d="M206.18 147.577L202.071 145.202C201.266 144.793 200.376 144.58 199.474 144.58C198.571 144.58 197.681 144.793 196.876 145.202L191.497 148.326C190.072 149.155 190.08 150.493 191.522 151.33L195.631 153.7C196.435 154.109 197.323 154.322 198.224 154.322C199.126 154.322 200.014 154.109 200.818 153.7L206.195 150.578C207.63 149.749 207.618 148.403 206.18 147.577Z" fill="url(#paint12_linear_10_330)"/>
<path d="M175.171 154.583L180.549 151.46C181.975 150.633 181.967 149.293 180.531 148.463L169.018 141.819C168.215 141.41 167.326 141.198 166.425 141.198C165.524 141.198 164.636 141.41 163.833 141.819L158.454 144.943C157.027 145.769 157.027 147.11 158.469 147.948L169.986 154.59C170.789 154.997 171.678 155.209 172.579 155.208C173.48 155.207 174.368 154.993 175.171 154.583Z" fill="url(#paint13_linear_10_330)"/>
<path d="M100.903 149.546L89.389 142.905C88.5848 142.496 87.6948 142.282 86.7919 142.282C85.8891 142.282 84.9991 142.496 84.1948 142.905L78.8157 146.029C77.3902 146.855 77.3959 148.196 78.8408 149.029L90.3546 155.673C91.1569 156.08 92.044 156.293 92.9437 156.293C93.8435 156.293 94.7306 156.08 95.5328 155.673L100.912 152.55C101.225 152.442 101.496 152.238 101.688 151.969C101.88 151.699 101.983 151.376 101.982 151.045C101.981 150.714 101.876 150.391 101.683 150.122C101.489 149.854 101.217 149.652 100.903 149.546Z" fill="url(#paint14_linear_10_330)"/>
<path d="M117.25 146.288L111.863 149.416C110.438 150.244 110.444 151.583 111.888 152.417L123.402 159.063C124.204 159.47 125.091 159.682 125.991 159.682C126.891 159.682 127.778 159.47 128.58 159.063L133.967 155.932C135.393 155.105 135.386 153.765 133.95 152.934L122.435 146.292C121.633 145.883 120.745 145.669 119.843 145.668C118.942 145.667 118.053 145.879 117.25 146.288Z" fill="url(#paint15_linear_10_330)"/>
<path d="M192.631 155.443L188.522 153.07C187.719 152.66 186.83 152.447 185.929 152.447C185.027 152.447 184.139 152.66 183.336 153.07L177.958 156.193C176.532 157.022 176.532 158.36 177.975 159.199L182.084 161.57C182.888 161.979 183.778 162.192 184.68 162.192C185.583 162.192 186.472 161.979 187.277 161.57L192.656 158.447C194.082 157.617 194.066 156.265 192.631 155.443Z" fill="url(#paint16_linear_10_330)"/>
<path d="M161.622 162.448L167.01 159.323C168.437 158.492 168.429 157.156 166.994 156.324L155.479 149.682C154.676 149.272 153.787 149.058 152.885 149.058C151.984 149.058 151.095 149.272 150.292 149.682L144.906 152.809C143.479 153.635 143.487 154.975 144.93 155.81L156.444 162.452C157.245 162.86 158.133 163.073 159.033 163.073C159.933 163.072 160.82 162.858 161.622 162.448Z" fill="url(#paint17_linear_10_330)"/>
<path d="M120.411 160.797L108.895 154.154C108.09 153.745 107.2 153.532 106.298 153.532C105.395 153.532 104.506 153.745 103.701 154.154L98.3223 157.279C96.898 158.107 96.9037 159.446 98.3463 160.28L109.862 166.922C110.664 167.331 111.551 167.544 112.451 167.544C113.352 167.544 114.239 167.331 115.041 166.922L120.419 163.8C120.731 163.691 121.002 163.488 121.194 163.219C121.386 162.949 121.488 162.626 121.487 162.296C121.486 161.965 121.382 161.643 121.189 161.374C120.996 161.105 120.724 160.904 120.411 160.797Z" fill="url(#paint18_linear_10_330)"/>
<path d="M179.091 163.305L174.982 160.932C174.179 160.523 173.29 160.309 172.389 160.309C171.487 160.309 170.598 160.523 169.795 160.932L164.409 164.059C162.982 164.887 162.99 166.225 164.433 167.06L168.542 169.432C169.345 169.841 170.234 170.054 171.135 170.054C172.037 170.054 172.926 169.841 173.729 169.432L179.115 166.305C180.543 165.477 180.527 164.134 179.091 163.305Z" fill="url(#paint19_linear_10_330)"/>
<path d="M131.39 163.67L142.905 170.31C143.707 170.718 144.594 170.931 145.494 170.931C146.394 170.931 147.281 170.718 148.083 170.31L153.469 167.183C154.896 166.355 154.887 165.017 153.451 164.186L141.937 157.541C141.134 157.132 140.246 156.919 139.344 156.919C138.443 156.919 137.554 157.132 136.751 157.541L131.365 160.667C129.941 161.496 129.948 162.835 131.39 163.67Z" fill="url(#paint20_linear_10_330)"/>
<path d="M139.912 172.047L128.398 165.407C127.593 164.997 126.703 164.783 125.8 164.783C124.898 164.783 124.008 164.997 123.203 165.407L117.824 168.529C116.399 169.356 116.407 170.696 117.849 171.528L129.364 178.173C130.166 178.581 131.053 178.794 131.953 178.794C132.853 178.794 133.741 178.581 134.542 178.173L139.923 175.05C140.235 174.941 140.506 174.738 140.698 174.468C140.889 174.198 140.991 173.875 140.99 173.545C140.989 173.214 140.885 172.892 140.691 172.623C140.498 172.355 140.226 172.153 139.912 172.047Z" fill="#339A7F"/>
<path d="M165.551 171.166L161.443 168.796C160.64 168.385 159.751 168.171 158.85 168.169C157.948 168.168 157.059 168.381 156.255 168.789L137.33 179.78C135.903 180.607 135.91 181.947 137.355 182.78L141.464 185.152C142.267 185.561 143.156 185.773 144.057 185.773C144.959 185.773 145.847 185.561 146.651 185.152L165.577 174.165C167.002 173.34 166.986 171.995 165.551 171.166Z" fill="#84C956"/>
<path d="M239.385 167.046L239.364 174.771C239.355 177.668 237.45 180.561 233.644 182.77C225.984 187.218 213.525 187.218 205.813 182.77C201.932 180.534 199.992 177.594 200.006 174.66L200.028 166.935C200.018 169.868 201.958 172.807 205.837 175.046C213.548 179.494 226.007 179.494 233.667 175.046C237.471 172.836 239.376 169.944 239.385 167.046Z" fill="url(#paint21_linear_10_330)"/>
<path d="M233.667 175.046C226.007 179.494 213.548 179.494 205.837 175.046C201.956 172.807 200.016 169.868 200.028 166.935V167.833C200.23 170.599 202.16 173.33 205.816 175.44C213.528 179.887 225.987 179.887 233.648 175.44C237.365 173.282 239.263 170.472 239.355 167.644C239.103 170.338 237.21 172.987 233.667 175.046Z" fill="#FDC22E"/>
<path d="M233.576 158.937C225.867 154.49 213.404 154.49 205.746 158.937C198.087 163.385 198.128 170.599 205.837 175.046C213.545 179.494 226.007 179.494 233.667 175.046C241.328 170.599 241.287 163.386 233.576 158.937Z" fill="url(#paint22_linear_10_330)"/>
<path d="M230.023 173.121C224.363 176.41 215.154 176.41 209.455 173.121C203.756 169.833 203.73 164.507 209.391 161.218C215.052 157.929 224.258 157.932 229.954 161.218C235.651 164.503 235.682 169.836 230.023 173.121Z" fill="#FDC22E"/>
<path d="M230.023 172.943C224.363 176.23 215.154 176.23 209.455 172.943C203.756 169.657 203.73 164.329 209.391 161.04C215.052 157.751 224.258 157.756 229.954 161.04C235.651 164.324 235.682 169.659 230.023 172.943Z" fill="#FC9100"/>
<path d="M226.594 166.516L226.051 165.891C225.805 165.609 225.531 165.352 225.235 165.123L226.431 164.428C226.534 164.369 226.534 164.296 226.437 164.24L224.788 163.29C224.738 163.262 224.682 163.247 224.625 163.247C224.567 163.247 224.511 163.262 224.461 163.29L223.231 164.003C222.505 163.689 221.718 163.543 220.928 163.574C220.138 163.605 219.365 163.812 218.666 164.182C217.317 164.963 217.32 165.677 218.389 167.023L219.038 167.854C219.465 168.396 219.62 168.813 219.248 169.03C218.913 169.178 218.545 169.233 218.182 169.19C217.819 169.147 217.475 169.007 217.184 168.786C216.62 168.461 216.11 168.05 215.674 167.568L215.067 166.914C215.051 166.896 215.033 166.88 215.012 166.866C214.973 166.85 214.932 166.842 214.89 166.842C214.847 166.842 214.806 166.85 214.767 166.866L212.898 167.373C212.784 167.416 212.739 167.464 212.816 167.547L213.373 168.177C213.716 168.561 214.095 168.913 214.503 169.227L213.336 169.904C213.239 169.961 213.239 170.034 213.336 170.088L214.998 171.048C215.048 171.078 215.104 171.093 215.161 171.093C215.218 171.093 215.275 171.078 215.324 171.048L216.521 170.354C217.268 170.702 218.087 170.87 218.912 170.842C219.736 170.815 220.542 170.593 221.264 170.195C222.612 169.412 222.634 168.683 221.545 167.317L220.89 166.496C220.443 165.935 220.252 165.6 220.689 165.348C221.002 165.231 221.339 165.192 221.67 165.234C222.001 165.276 222.317 165.398 222.591 165.59C223.046 165.858 223.455 166.197 223.803 166.594L224.319 167.147C224.334 167.165 224.353 167.18 224.373 167.191C224.41 167.21 224.45 167.22 224.491 167.222C224.532 167.225 224.573 167.218 224.611 167.204L226.501 166.693C226.631 166.655 226.665 166.604 226.594 166.516Z" fill="#C76600"/>
<path d="M209.391 161.603C215.049 158.318 224.258 158.318 229.955 161.603C232.694 163.185 234.123 165.239 234.237 167.317C234.371 165.054 232.945 162.767 229.955 161.045C224.258 157.76 215.049 157.76 209.391 161.045C206.453 162.755 205.054 165.006 205.175 167.24C205.297 165.19 206.704 163.166 209.391 161.603Z" fill="#ED7A00"/>
<path d="M239.385 157.748L239.364 165.474C239.355 168.37 237.45 171.264 233.644 173.47C225.984 177.918 213.525 177.918 205.813 173.47C201.932 171.234 199.992 168.296 200.006 165.361L200.028 157.637C200.018 160.57 201.958 163.508 205.837 165.746C213.548 170.194 226.007 170.194 233.667 165.746C237.471 163.534 239.376 160.643 239.385 157.748Z" fill="url(#paint23_linear_10_330)"/>
<path d="M233.667 165.744C226.007 170.192 213.548 170.192 205.837 165.744C201.956 163.506 200.016 160.568 200.028 157.635V158.533C200.23 161.295 202.16 164.03 205.816 166.141C213.528 170.589 225.987 170.589 233.648 166.141C237.365 163.982 239.263 161.173 239.355 158.345C239.103 161.038 237.21 163.686 233.667 165.744Z" fill="#FDC22E"/>
<path d="M233.576 149.637C225.867 145.19 213.404 145.19 205.746 149.637C198.087 154.085 198.128 161.295 205.837 165.744C213.545 170.193 226.007 170.192 233.667 165.744C241.328 161.297 241.287 154.085 233.576 149.637Z" fill="url(#paint24_linear_10_330)"/>
<path d="M230.023 163.821C224.363 167.109 215.154 167.109 209.455 163.821C203.756 160.534 203.73 155.206 209.391 151.918C215.052 148.63 224.258 148.631 229.954 151.918C235.651 155.205 235.682 160.535 230.023 163.821Z" fill="#FDC22E"/>
<path d="M230.023 163.645C224.363 166.931 215.154 166.931 209.455 163.645C203.756 160.358 203.73 155.028 209.391 151.74C215.052 148.452 224.258 148.453 229.954 151.74C235.651 155.027 235.682 160.357 230.023 163.645Z" fill="#FC9100"/>
<path d="M226.594 157.216L226.051 156.59C225.805 156.309 225.531 156.052 225.235 155.824L226.431 155.128C226.534 155.069 226.534 154.995 226.437 154.939L224.788 153.989C224.738 153.961 224.682 153.946 224.625 153.946C224.567 153.946 224.511 153.961 224.461 153.989L223.231 154.705C222.506 154.39 221.719 154.243 220.928 154.273C220.138 154.303 219.365 154.511 218.666 154.881C217.317 155.664 217.32 156.378 218.389 157.725L219.038 158.553C219.465 159.094 219.62 159.514 219.248 159.73C218.914 159.878 218.546 159.933 218.183 159.891C217.82 159.848 217.475 159.708 217.184 159.487C216.62 159.163 216.11 158.751 215.674 158.268L215.067 157.615C215.051 157.597 215.033 157.581 215.012 157.567C214.933 157.536 214.846 157.536 214.767 157.567L212.898 158.07C212.784 158.116 212.739 158.163 212.816 158.249L213.373 158.876C213.716 159.261 214.095 159.613 214.503 159.928L213.336 160.605C213.239 160.661 213.239 160.734 213.336 160.79L214.998 161.749C215.048 161.778 215.104 161.794 215.161 161.794C215.218 161.794 215.275 161.778 215.324 161.749L216.521 161.055C217.268 161.404 218.088 161.571 218.912 161.543C219.736 161.515 220.542 161.293 221.264 160.894C222.612 160.112 222.634 159.385 221.545 158.015L220.89 157.198C220.443 156.636 220.252 156.303 220.689 156.05C221.002 155.932 221.338 155.892 221.67 155.934C222.001 155.976 222.317 156.098 222.591 156.29C223.046 156.558 223.455 156.897 223.803 157.294L224.319 157.847C224.334 157.866 224.352 157.881 224.373 157.892C224.41 157.91 224.45 157.921 224.491 157.923C224.532 157.925 224.572 157.919 224.611 157.905L226.501 157.394C226.631 157.354 226.665 157.304 226.594 157.216Z" fill="#C76600"/>
<path d="M209.391 152.303C215.049 149.018 224.258 149.018 229.955 152.303C232.694 153.884 234.123 155.94 234.237 158.014C234.371 155.753 232.945 153.465 229.955 151.742C224.258 148.456 215.049 148.456 209.391 151.742C206.453 153.453 205.054 155.704 205.175 157.939C205.297 155.89 206.704 153.87 209.391 152.303Z" fill="#ED7A00"/>
<path d="M239.385 148.447L239.364 156.172C239.355 159.068 237.45 161.96 233.644 164.169C225.984 168.617 213.525 168.617 205.813 164.169C201.932 161.933 199.992 158.993 200.006 156.06L200.028 148.334C200.018 151.267 201.958 154.207 205.837 156.445C213.548 160.893 226.007 160.893 233.667 156.445C237.471 154.234 239.376 151.343 239.385 148.447Z" fill="url(#paint25_linear_10_330)"/>
<path d="M233.667 156.445C226.007 160.893 213.548 160.893 205.837 156.445C201.956 154.207 200.016 151.267 200.028 148.334V149.232C200.23 151.997 202.16 154.731 205.816 156.841C213.528 161.289 225.987 161.289 233.648 156.841C237.365 154.682 239.263 151.871 239.355 149.043C239.103 151.738 237.21 154.387 233.667 156.445Z" fill="#FDC22E"/>
<path d="M233.576 140.337C225.867 135.89 213.404 135.89 205.746 140.337C198.087 144.785 198.128 151.997 205.837 156.445C213.545 160.894 226.007 160.893 233.667 156.445C241.328 151.998 241.287 144.785 233.576 140.337Z" fill="url(#paint26_linear_10_330)"/>
<path d="M230.023 154.52C224.363 157.809 215.154 157.809 209.455 154.52C203.756 151.231 203.73 145.905 209.391 142.618C215.052 139.331 224.258 139.333 229.954 142.618C235.651 145.904 235.682 151.235 230.023 154.52Z" fill="#FDC22E"/>
<path d="M230.023 154.342C224.363 157.63 215.154 157.63 209.455 154.342C203.756 151.055 203.73 145.728 209.391 142.439C215.052 139.15 224.258 139.154 229.954 142.439C235.651 145.724 235.682 151.058 230.023 154.342Z" fill="#FC9100"/>
<path d="M226.594 147.914L226.051 147.289C225.804 147.008 225.531 146.751 225.235 146.522L226.431 145.826C226.534 145.768 226.534 145.695 226.437 145.638L224.788 144.69C224.738 144.661 224.682 144.646 224.625 144.646C224.567 144.646 224.511 144.661 224.461 144.69L223.231 145.404C222.505 145.09 221.718 144.943 220.928 144.973C220.138 145.004 219.365 145.211 218.666 145.581C217.317 146.363 217.32 147.079 218.389 148.424L219.038 149.254C219.465 149.795 219.62 150.215 219.248 150.429C218.913 150.577 218.546 150.632 218.182 150.589C217.819 150.546 217.475 150.407 217.184 150.185C216.62 149.861 216.11 149.451 215.674 148.969L215.067 148.315C215.052 148.296 215.034 148.28 215.012 148.268C214.974 148.25 214.932 148.241 214.89 148.241C214.847 148.241 214.805 148.25 214.767 148.268L212.898 148.772C212.784 148.817 212.739 148.864 212.816 148.948L213.373 149.577C213.716 149.962 214.094 150.313 214.503 150.626L213.336 151.31C213.239 151.366 213.239 151.438 213.336 151.495L214.998 152.454C215.048 152.483 215.104 152.498 215.161 152.498C215.218 152.498 215.274 152.483 215.324 152.454L216.521 151.757C217.268 152.107 218.087 152.275 218.912 152.248C219.736 152.22 220.542 151.998 221.264 151.6C222.612 150.816 222.634 150.087 221.545 148.72L220.89 147.899C220.443 147.34 220.252 147.006 220.689 146.759C221.002 146.641 221.338 146.601 221.67 146.643C222.001 146.685 222.318 146.807 222.591 146.999C223.046 147.266 223.455 147.605 223.803 148.002L224.319 148.556C224.335 148.574 224.353 148.589 224.373 148.602C224.41 148.619 224.45 148.629 224.491 148.631C224.532 148.633 224.572 148.627 224.611 148.613L226.501 148.103C226.631 148.054 226.665 148.003 226.594 147.914Z" fill="#C76600"/>
<path d="M209.391 143.002C215.049 139.719 224.258 139.719 229.955 143.002C232.694 144.584 234.123 146.64 234.237 148.715C234.371 146.453 232.945 144.166 229.955 142.442C224.258 139.157 215.049 139.157 209.391 142.442C206.453 144.153 205.054 146.406 205.175 148.64C205.297 146.589 206.704 144.566 209.391 143.002Z" fill="#ED7A00"/>
<path d="M239.385 139.144L239.364 146.869C239.355 149.766 237.45 152.66 233.644 154.867C225.984 159.315 213.525 159.315 205.813 154.867C201.932 152.632 199.992 149.694 200.006 146.759L200.028 139.034C200.018 141.967 201.958 144.905 205.837 147.145C213.548 151.593 226.007 151.593 233.667 147.145C237.471 144.934 239.376 142.043 239.385 139.144Z" fill="url(#paint27_linear_10_330)"/>
<path d="M233.667 147.142C226.007 151.59 213.548 151.59 205.837 147.142C201.956 144.901 200.016 141.963 200.028 139.03V139.928C200.23 142.693 202.16 145.426 205.816 147.537C213.528 151.984 225.987 151.984 233.648 147.537C237.365 145.377 239.263 142.569 239.355 139.74C239.103 142.436 237.21 145.089 233.667 147.142Z" fill="#FDC22E"/>
<path d="M233.576 131.036C225.867 126.589 213.404 126.589 205.746 131.036C198.087 135.484 198.128 142.697 205.837 147.145C213.545 151.594 226.007 151.593 233.667 147.145C241.328 142.698 241.287 135.485 233.576 131.036Z" fill="url(#paint28_linear_10_330)"/>
<path d="M230.023 145.22C224.363 148.51 215.154 148.51 209.455 145.22C203.756 141.93 203.73 136.606 209.391 133.316C215.052 130.026 224.258 130.03 229.954 133.316C235.651 136.601 235.682 141.935 230.023 145.22Z" fill="#FDC22E"/>
<path d="M230.023 145.044C224.363 148.33 215.154 148.33 209.455 145.044C203.756 141.757 203.73 136.428 209.391 133.139C215.052 129.85 224.258 129.855 229.954 133.139C235.651 136.423 235.682 141.757 230.023 145.044Z" fill="#FC9100"/>
<path d="M226.594 138.615L226.051 137.988C225.804 137.707 225.531 137.451 225.235 137.222L226.431 136.527C226.534 136.468 226.534 136.395 226.437 136.339L224.788 135.388C224.738 135.361 224.682 135.347 224.625 135.347C224.568 135.347 224.511 135.361 224.461 135.388L223.231 136.105C222.505 135.79 221.718 135.643 220.928 135.674C220.138 135.704 219.365 135.912 218.666 136.282C217.317 137.063 217.32 137.776 218.389 139.123L219.038 139.954C219.465 140.495 219.62 140.913 219.248 141.129C218.914 141.277 218.546 141.333 218.182 141.29C217.819 141.247 217.474 141.107 217.184 140.885C216.62 140.561 216.111 140.151 215.674 139.669L215.067 139.013C215.051 138.996 215.032 138.98 215.012 138.966C214.973 138.95 214.932 138.942 214.89 138.942C214.847 138.942 214.806 138.95 214.767 138.966L212.898 139.473C212.784 139.516 212.739 139.564 212.816 139.647L213.373 140.276C213.716 140.661 214.095 141.013 214.503 141.327L213.336 142.004C213.239 142.06 213.239 142.135 213.336 142.19L214.998 143.148C215.048 143.178 215.104 143.193 215.161 143.193C215.218 143.193 215.275 143.178 215.324 143.148L216.521 142.454C217.268 142.803 218.087 142.971 218.912 142.943C219.736 142.916 220.543 142.693 221.264 142.294C222.612 141.512 222.634 140.784 221.545 139.418L220.89 138.597C220.443 138.037 220.252 137.702 220.689 137.457C221.002 137.338 221.338 137.298 221.67 137.34C222.001 137.381 222.317 137.504 222.591 137.696C223.045 137.964 223.455 138.303 223.803 138.7L224.319 139.253C224.334 139.271 224.353 139.287 224.373 139.299C224.41 139.317 224.45 139.327 224.491 139.329C224.532 139.331 224.572 139.325 224.611 139.311L226.501 138.8C226.631 138.754 226.665 138.703 226.594 138.615Z" fill="#C76600"/>
<path d="M209.391 133.702C215.049 130.416 224.258 130.416 229.955 133.702C232.694 135.283 234.123 137.339 234.237 139.412C234.371 137.152 232.945 134.865 229.955 133.14C224.258 129.856 215.049 129.856 209.391 133.14C206.453 134.851 205.054 137.102 205.175 139.338C205.297 137.289 206.704 135.264 209.391 133.702Z" fill="#ED7A00"/>
<path d="M211.77 188.523L211.748 196.25C211.74 199.146 209.834 202.038 206.031 204.247C198.369 208.695 185.912 208.695 178.198 204.247C174.318 202.01 172.378 199.072 172.39 196.138L172.412 188.414C172.404 191.346 174.343 194.284 178.221 196.522C185.932 200.97 198.39 200.97 206.05 196.522C209.857 194.312 211.762 191.421 211.77 188.523Z" fill="url(#paint29_linear_10_330)"/>
<path d="M206.05 196.521C198.39 200.969 185.932 200.969 178.221 196.521C174.341 194.282 172.401 191.345 172.412 188.413V189.31C172.613 192.074 174.544 194.808 178.201 196.918C185.914 201.365 198.372 201.365 206.033 196.918C209.749 194.759 211.648 191.949 211.74 189.122C211.49 191.816 209.595 194.468 206.05 196.521Z" fill="#FDC22E"/>
<path d="M205.961 180.416C198.252 175.969 185.788 175.969 178.13 180.416C170.472 184.864 170.514 192.075 178.221 196.522C185.929 200.97 198.39 200.97 206.05 196.522C213.711 192.075 213.672 184.864 205.961 180.416Z" fill="url(#paint30_linear_10_330)"/>
<path d="M202.408 194.599C196.749 197.886 187.538 197.886 181.839 194.599C176.141 191.313 176.116 185.984 181.777 182.696C187.438 179.408 196.644 179.409 202.339 182.696C208.034 185.983 208.074 191.314 202.408 194.599Z" fill="#FDC22E"/>
<path d="M202.408 194.422C196.749 197.709 187.538 197.709 181.839 194.422C176.141 191.134 176.116 185.807 181.777 182.519C187.438 179.232 196.644 179.232 202.339 182.519C208.034 185.807 208.074 191.136 202.408 194.422Z" fill="#FC9100"/>
<path d="M198.98 187.994L198.434 187.368C198.189 187.086 197.916 186.829 197.62 186.601L198.817 185.906C198.919 185.847 198.919 185.773 198.817 185.719L197.167 184.768C197.118 184.74 197.062 184.726 197.005 184.726C196.949 184.726 196.893 184.74 196.843 184.768L195.612 185.484C194.886 185.17 194.099 185.023 193.309 185.053C192.519 185.084 191.746 185.291 191.046 185.66C189.697 186.443 189.702 187.157 190.77 188.504L191.42 189.332C191.845 189.875 192.001 190.293 191.628 190.509C191.295 190.657 190.927 190.713 190.564 190.67C190.201 190.628 189.856 190.488 189.566 190.266C189.002 189.941 188.492 189.53 188.054 189.048L187.448 188.395C187.433 188.376 187.414 188.36 187.393 188.348C187.354 188.332 187.313 188.323 187.271 188.323C187.229 188.323 187.187 188.332 187.149 188.348L185.28 188.853C185.166 188.896 185.121 188.944 185.198 189.028L185.755 189.656C186.098 190.041 186.476 190.393 186.885 190.707L185.718 191.384C185.621 191.441 185.621 191.516 185.718 191.569L187.379 192.529C187.429 192.558 187.485 192.574 187.543 192.574C187.6 192.574 187.656 192.558 187.706 192.529L188.902 191.834C189.649 192.183 190.468 192.35 191.293 192.322C192.117 192.294 192.923 192.072 193.645 191.673C194.994 190.891 195.015 190.163 193.926 188.795L193.271 187.976C192.822 187.416 192.633 187.082 193.07 186.829C193.383 186.711 193.719 186.672 194.051 186.714C194.382 186.756 194.698 186.878 194.971 187.069C195.427 187.337 195.836 187.676 196.184 188.074L196.699 188.625C196.714 188.645 196.733 188.661 196.755 188.672C196.792 188.69 196.832 188.7 196.872 188.702C196.913 188.704 196.953 188.698 196.992 188.684L198.882 188.174C199.016 188.133 199.049 188.082 198.98 187.994Z" fill="#C76600"/>
<path d="M181.777 183.082C187.433 179.796 196.644 179.796 202.339 183.082C205.078 184.663 206.507 186.718 206.621 188.793C206.756 186.531 205.328 184.245 202.339 182.52C196.644 179.233 187.433 179.233 181.777 182.52C178.836 184.225 177.439 186.481 177.56 188.716C177.683 186.669 179.084 184.644 181.777 183.082Z" fill="#ED7A00"/>
<path d="M211.77 179.224L211.748 186.95C211.74 189.846 209.834 192.74 206.031 194.946C198.369 199.394 185.912 199.394 178.198 194.946C174.318 192.71 172.378 189.771 172.39 186.837L172.412 179.112C172.404 182.046 174.343 184.984 178.221 187.223C185.932 191.671 198.39 191.671 206.05 187.223C209.857 185.012 211.762 182.121 211.77 179.224Z" fill="url(#paint31_linear_10_330)"/>
<path d="M206.05 187.223C198.39 191.671 185.932 191.671 178.221 187.223C174.341 184.984 172.401 182.046 172.412 179.112V180.012C172.613 182.775 174.544 185.508 178.201 187.619C185.914 192.067 198.372 192.067 206.033 187.619C209.749 185.459 211.648 182.649 211.74 179.821C211.49 182.515 209.595 185.165 206.05 187.223Z" fill="#FDC22E"/>
<path d="M205.961 171.114C198.252 166.667 185.788 166.667 178.13 171.114C170.472 175.562 170.514 182.775 178.221 187.223C185.929 191.672 198.39 191.671 206.05 187.223C213.711 182.776 213.672 175.562 205.961 171.114Z" fill="url(#paint32_linear_10_330)"/>
<path d="M202.408 185.298C196.749 188.587 187.538 188.587 181.839 185.298C176.141 182.01 176.116 176.684 181.777 173.397C187.438 170.111 196.644 170.111 202.339 173.397C208.034 176.684 208.074 182.014 202.408 185.298Z" fill="#FDC22E"/>
<path d="M202.408 185.117C196.749 188.403 187.538 188.403 181.839 185.117C176.141 181.832 176.116 176.5 181.777 173.214C187.438 169.927 196.644 169.928 202.339 173.214C208.034 176.499 208.074 181.836 202.408 185.117Z" fill="#FC9100"/>
<path d="M198.98 178.693L198.434 178.068C198.189 177.786 197.917 177.529 197.62 177.301L198.817 176.604C198.919 176.547 198.919 176.474 198.817 176.417L197.167 175.467C197.118 175.439 197.062 175.424 197.005 175.424C196.948 175.424 196.893 175.439 196.843 175.467L195.612 176.18C194.886 175.866 194.099 175.72 193.309 175.75C192.519 175.781 191.746 175.989 191.046 176.358C189.697 177.14 189.702 177.854 190.77 179.201L191.42 180.031C191.845 180.573 192.001 180.99 191.628 181.206C191.295 181.354 190.927 181.409 190.564 181.367C190.201 181.324 189.856 181.184 189.566 180.963C189.002 180.638 188.492 180.227 188.054 179.746L187.448 179.091C187.432 179.072 187.414 179.056 187.393 179.043C187.315 179.011 187.227 179.011 187.149 179.043L185.28 179.547C185.166 179.592 185.121 179.64 185.198 179.725L185.755 180.351C186.097 180.737 186.475 181.089 186.885 181.402L185.718 182.086C185.621 182.142 185.621 182.214 185.718 182.271L187.379 183.229C187.429 183.258 187.485 183.274 187.543 183.274C187.6 183.274 187.656 183.258 187.706 183.229L188.902 182.535C189.649 182.884 190.468 183.052 191.293 183.024C192.117 182.996 192.923 182.774 193.645 182.376C194.994 181.591 195.015 180.863 193.926 179.496L193.271 178.676C192.822 178.116 192.633 177.783 193.07 177.529C193.383 177.411 193.72 177.372 194.051 177.414C194.382 177.456 194.699 177.579 194.971 177.772C195.427 178.039 195.836 178.377 196.184 178.774L196.699 179.327C196.715 179.346 196.734 179.362 196.755 179.373C196.829 179.408 196.914 179.412 196.992 179.385L198.882 178.875C199.016 178.832 199.049 178.781 198.98 178.693Z" fill="#C76600"/>
<path d="M181.777 173.783C187.433 170.495 196.644 170.495 202.339 173.783C205.078 175.361 206.507 177.417 206.621 179.494C206.756 177.232 205.328 174.944 202.339 173.222C196.644 169.936 187.433 169.936 181.777 173.222C178.836 174.927 177.439 177.182 177.56 179.419C177.683 177.362 179.084 175.343 181.777 173.783Z" fill="#ED7A00"/>
<path d="M211.77 169.924L211.748 177.648C211.74 180.545 209.834 183.438 206.031 185.645C198.369 190.093 185.912 190.093 178.198 185.645C174.318 183.409 172.378 180.471 172.39 177.538L172.412 169.812C172.404 172.745 174.343 175.684 178.221 177.924C185.932 182.371 198.39 182.371 206.05 177.924C209.857 175.712 211.762 172.821 211.77 169.924Z" fill="url(#paint33_linear_10_330)"/>
<path d="M206.05 177.924C198.39 182.371 185.932 182.371 178.221 177.924C174.341 175.684 172.401 172.745 172.412 169.812V170.711C172.613 173.473 174.544 176.208 178.201 178.317C185.914 182.765 198.372 182.765 206.033 178.317C209.749 176.159 211.648 173.351 211.74 170.521C211.49 173.215 209.595 175.863 206.05 177.924Z" fill="#FDC22E"/>
<path d="M205.961 161.815C198.252 157.368 185.788 157.368 178.13 161.815C170.472 166.263 170.514 173.473 178.221 177.924C185.929 182.374 198.39 182.371 206.05 177.924C213.711 173.476 213.672 166.263 205.961 161.815Z" fill="url(#paint34_linear_10_330)"/>
<path d="M202.408 175.994C196.749 179.284 187.538 179.284 181.839 175.994C176.141 172.704 176.116 167.379 181.777 164.091C187.438 160.802 196.644 160.804 202.339 164.091C208.034 167.377 208.074 172.712 202.408 175.994Z" fill="#FDC22E"/>
<path d="M202.408 175.822C196.749 179.108 187.538 179.108 181.839 175.822C176.141 172.535 176.116 167.205 181.777 163.917C187.438 160.629 196.644 160.632 202.339 163.917C208.034 167.203 208.074 172.536 202.408 175.822Z" fill="#FC9100"/>
<path d="M198.98 169.393L198.434 168.766C198.189 168.485 197.916 168.228 197.62 168L198.817 167.305C198.919 167.245 198.919 167.172 198.817 167.117L197.167 166.166C197.118 166.138 197.062 166.123 197.005 166.123C196.948 166.123 196.893 166.138 196.843 166.166L195.612 166.881C194.886 166.567 194.099 166.42 193.309 166.45C192.519 166.481 191.746 166.688 191.046 167.057C189.697 167.841 189.702 168.554 190.77 169.9L191.42 170.73C191.845 171.273 192.001 171.691 191.628 171.906C191.295 172.054 190.927 172.11 190.564 172.067C190.201 172.024 189.856 171.884 189.566 171.662C189.002 171.337 188.492 170.926 188.054 170.445L187.448 169.791C187.432 169.773 187.414 169.757 187.393 169.745C187.354 169.728 187.313 169.719 187.271 169.719C187.229 169.719 187.187 169.728 187.149 169.745L185.28 170.25C185.166 170.292 185.121 170.34 185.198 170.424L185.755 171.053C186.098 171.438 186.476 171.79 186.885 172.104L185.718 172.788C185.621 172.843 185.621 172.917 185.718 172.972L187.379 173.931C187.429 173.96 187.485 173.975 187.543 173.975C187.6 173.975 187.656 173.96 187.706 173.931L188.902 173.235C189.649 173.585 190.468 173.752 191.292 173.725C192.117 173.698 192.923 173.476 193.645 173.078C194.994 172.295 195.015 171.566 193.926 170.198L193.271 169.379C192.822 168.817 192.633 168.483 193.07 168.232C193.383 168.115 193.719 168.075 194.05 168.117C194.382 168.159 194.698 168.281 194.971 168.472C195.427 168.739 195.836 169.078 196.184 169.475L196.699 170.031C196.715 170.049 196.734 170.064 196.755 170.074C196.792 170.093 196.831 170.103 196.872 170.105C196.913 170.108 196.954 170.101 196.992 170.087L198.882 169.576C199.016 169.532 199.049 169.48 198.98 169.393Z" fill="#C76600"/>
<path d="M181.777 164.476C187.433 161.192 196.644 161.192 202.339 164.476C205.078 166.058 206.507 168.114 206.621 170.187C206.756 167.927 205.328 165.639 202.339 163.915C196.644 160.629 187.433 160.629 181.777 163.915C178.836 165.626 177.439 167.877 177.56 170.112C177.683 168.067 179.084 166.044 181.777 164.476Z" fill="#ED7A00"/>
<path d="M253.087 195.174L253.066 202.9C253.057 205.798 251.152 208.69 247.348 210.899C239.687 215.347 227.229 215.347 219.517 210.899C215.636 208.661 213.696 205.723 213.708 202.789L213.73 195.065C213.722 197.997 215.66 200.937 219.54 203.174C227.25 207.622 239.708 207.622 247.369 203.174C251.174 200.969 253.079 198.073 253.087 195.174Z" fill="url(#paint35_linear_10_330)"/>
<path d="M247.369 203.174C239.708 207.622 227.249 207.622 219.54 203.174C215.659 200.937 213.719 197.997 213.73 195.065V195.963C213.934 198.727 215.862 201.46 219.52 203.57C227.232 208.017 239.69 208.017 247.352 203.57C251.068 201.412 252.967 198.601 253.058 195.774C252.807 198.468 250.913 201.116 247.369 203.174Z" fill="#FDC22E"/>
<path d="M247.279 187.067C239.57 182.62 227.107 182.62 219.448 187.067C211.79 191.515 211.831 198.727 219.54 203.174C227.248 207.622 239.708 207.622 247.369 203.174C255.03 198.727 254.99 191.516 247.279 187.067Z" fill="url(#paint36_linear_10_330)"/>
<path d="M243.726 201.25C238.066 204.539 228.857 204.539 223.158 201.25C217.459 197.961 217.433 192.635 223.094 189.347C228.755 186.059 237.962 186.061 243.656 189.347C249.35 192.632 249.39 197.966 243.726 201.25Z" fill="#FDC22E"/>
<path d="M243.726 201.072C238.066 204.36 228.857 204.36 223.158 201.072C217.459 197.785 217.433 192.458 223.094 189.17C228.755 185.882 237.962 185.885 243.656 189.17C249.35 192.456 249.39 197.788 243.726 201.072Z" fill="#FC9100"/>
<path d="M240.297 194.645L239.754 194.02C239.508 193.738 239.234 193.481 238.938 193.252L240.135 192.557C240.237 192.498 240.237 192.425 240.135 192.37L238.487 191.419C238.437 191.391 238.381 191.376 238.324 191.376C238.267 191.376 238.211 191.391 238.161 191.419L236.93 192.134C236.205 191.82 235.418 191.674 234.628 191.704C233.838 191.735 233.064 191.942 232.365 192.311C231.017 193.094 231.022 193.807 232.09 195.154L232.739 195.982C233.165 196.526 233.32 196.944 232.947 197.159C232.613 197.307 232.246 197.363 231.883 197.32C231.52 197.277 231.176 197.138 230.886 196.916C230.321 196.591 229.811 196.18 229.375 195.697L228.766 195.045C228.752 195.027 228.734 195.011 228.714 194.997C228.675 194.981 228.633 194.973 228.591 194.973C228.549 194.973 228.507 194.981 228.469 194.997L226.599 195.503C226.485 195.546 226.439 195.594 226.517 195.677L227.075 196.306C227.417 196.691 227.795 197.043 228.204 197.357L227.036 198.034C226.939 198.09 226.939 198.166 227.036 198.219L228.698 199.179C228.747 199.209 228.804 199.224 228.861 199.224C228.919 199.224 228.975 199.209 229.024 199.179L230.22 198.485C230.968 198.834 231.787 199.001 232.611 198.973C233.435 198.945 234.241 198.723 234.963 198.325C236.312 197.543 236.332 196.814 235.243 195.448L234.588 194.627C234.141 194.066 233.953 193.733 234.387 193.481C234.7 193.363 235.037 193.324 235.368 193.366C235.699 193.408 236.015 193.53 236.289 193.721C236.745 193.989 237.154 194.328 237.502 194.725L238.018 195.279C238.033 195.298 238.051 195.313 238.073 195.323C238.109 195.341 238.149 195.352 238.19 195.354C238.231 195.356 238.272 195.35 238.31 195.335L240.199 194.825C240.334 194.784 240.368 194.733 240.297 194.645Z" fill="#C76600"/>
<path d="M223.094 189.732C228.751 186.448 237.962 186.448 243.656 189.732C246.395 191.314 247.824 193.369 247.938 195.443C248.075 193.183 246.649 190.897 243.656 189.171C237.962 185.886 228.751 185.886 223.094 189.171C220.156 190.876 218.757 193.133 218.878 195.367C219.001 193.32 220.4 191.296 223.094 189.732Z" fill="#ED7A00"/>
<path d="M253.087 185.875L253.066 193.602C253.057 196.497 251.152 199.39 247.348 201.597C239.687 206.045 227.229 206.045 219.517 201.597C215.636 199.361 213.696 196.423 213.708 193.488L213.73 185.764C213.722 188.697 215.66 191.634 219.54 193.874C227.25 198.322 239.708 198.322 247.369 193.874C251.174 191.663 253.079 188.773 253.087 185.875Z" fill="url(#paint37_linear_10_330)"/>
<path d="M247.369 193.874C239.708 198.322 227.249 198.322 219.54 193.874C215.659 191.634 213.719 188.697 213.73 185.764V186.662C213.934 189.426 215.862 192.159 219.52 194.271C227.232 198.719 239.69 198.719 247.352 194.271C251.068 192.11 252.967 189.301 253.058 186.474C252.807 189.166 250.913 191.816 247.369 193.874Z" fill="#FDC22E"/>
<path d="M247.279 177.765C239.57 173.317 227.107 173.317 219.448 177.765C211.79 182.213 211.831 189.426 219.54 193.874C227.248 198.323 239.708 198.322 247.369 193.874C255.03 189.427 254.99 182.214 247.279 177.765Z" fill="url(#paint38_linear_10_330)"/>
<path d="M243.726 191.95C238.066 195.239 228.857 195.239 223.158 191.95C217.459 188.661 217.433 183.336 223.094 180.048C228.755 176.76 237.962 176.761 243.656 180.048C249.35 183.335 249.39 188.665 243.726 191.95Z" fill="#FDC22E"/>
<path d="M243.726 191.772C238.066 195.061 228.857 195.061 223.158 191.772C217.459 188.484 217.433 183.158 223.094 179.869C228.755 176.58 237.962 176.584 243.656 179.869C249.35 183.155 249.39 188.487 243.726 191.772Z" fill="#FC9100"/>
<path d="M240.297 185.345L239.754 184.719C239.508 184.438 239.234 184.181 238.938 183.953L240.135 183.255C240.237 183.198 240.237 183.125 240.135 183.068L238.487 182.118C238.437 182.09 238.381 182.075 238.324 182.075C238.267 182.075 238.21 182.09 238.161 182.118L236.93 182.833C236.205 182.519 235.418 182.371 234.628 182.402C233.837 182.432 233.064 182.64 232.365 183.01C231.017 183.791 231.022 184.506 232.09 185.853L232.739 186.682C233.165 187.223 233.32 187.642 232.947 187.857C232.613 188.006 232.246 188.061 231.883 188.018C231.52 187.975 231.176 187.836 230.886 187.613C230.322 187.289 229.812 186.879 229.375 186.397L228.766 185.742C228.752 185.724 228.734 185.708 228.714 185.695C228.675 185.679 228.633 185.671 228.591 185.671C228.549 185.671 228.507 185.679 228.469 185.695L226.599 186.199C226.485 186.245 226.439 186.292 226.517 186.377L227.075 187.004C227.417 187.39 227.795 187.742 228.204 188.055L227.036 188.739C226.939 188.795 226.939 188.867 227.036 188.925L228.698 189.883C228.747 189.913 228.803 189.929 228.86 189.93C228.918 189.931 228.974 189.917 229.024 189.889L230.22 189.193C230.967 189.542 231.787 189.71 232.611 189.682C233.435 189.654 234.241 189.432 234.963 189.033C236.312 188.25 236.332 187.522 235.243 186.154L234.588 185.335C234.141 184.775 233.953 184.441 234.387 184.187C234.7 184.07 235.037 184.031 235.368 184.073C235.7 184.115 236.016 184.238 236.289 184.429C236.744 184.697 237.154 185.035 237.502 185.432L238.018 185.985C238.033 186.004 238.052 186.02 238.073 186.032C238.11 186.049 238.15 186.059 238.19 186.061C238.231 186.063 238.272 186.057 238.31 186.043L240.199 185.532C240.334 185.484 240.368 185.434 240.297 185.345Z" fill="#C76600"/>
<path d="M223.094 180.434C228.751 177.147 237.962 177.147 243.656 180.434C246.395 182.014 247.824 184.07 247.938 186.145C248.075 183.883 246.649 181.594 243.656 179.872C237.962 176.587 228.751 176.587 223.094 179.872C220.156 181.583 218.757 183.835 218.878 186.069C219.001 184.019 220.4 181.995 223.094 180.434Z" fill="#ED7A00"/>
<path d="M239.955 150.536C237.418 149.059 233.906 149.27 230.025 151.507C222.313 155.955 216.085 166.734 216.111 175.589C216.123 179.986 217.677 183.081 220.182 184.537L226.866 188.414C224.361 186.96 222.809 183.865 222.795 179.466C222.77 170.612 228.998 159.832 236.71 155.385C240.591 153.146 244.104 152.938 246.64 154.412C244.412 153.121 242.184 151.829 239.955 150.536Z" fill="url(#paint39_linear_10_330)"/>
<path d="M246.64 154.415C246.198 154.16 245.754 153.901 245.311 153.646C242.874 152.693 239.733 153.082 236.305 155.06C228.594 159.507 222.366 170.287 222.39 179.141C222.401 183.133 223.685 186.045 225.795 187.64C223.925 185.991 222.802 183.201 222.791 179.47C222.766 170.616 228.995 159.836 236.707 155.388C240.585 153.15 244.1 152.941 246.64 154.415Z" fill="#FFEC42"/>
<path d="M236.707 155.388C228.995 159.836 222.766 170.616 222.791 179.47C222.817 188.324 229.086 191.9 236.798 187.445C244.51 182.989 250.737 172.217 250.712 163.363C250.687 154.509 244.415 150.941 236.707 155.388Z" fill="url(#paint40_linear_10_330)"/>
<path d="M236.6 159.47C230.903 162.757 226.296 170.723 226.315 177.26C226.333 183.797 230.968 186.439 236.665 183.152C242.363 179.866 246.967 171.9 246.948 165.362C246.928 158.824 242.297 156.182 236.6 159.47Z" fill="#FDC22E"/>
<path d="M236.721 159.572C231.024 162.861 226.419 170.826 226.438 177.368C226.457 183.911 231.091 186.546 236.788 183.259C242.484 179.973 247.089 172.007 247.071 165.469C247.053 158.931 242.417 156.288 236.721 159.572Z" fill="#FC9100"/>
<path d="M240.074 171.635C240.074 170.078 239.448 169.697 237.719 169.952L236.675 170.114C235.97 170.218 235.58 170.218 235.58 169.713C235.636 169.383 235.771 169.071 235.974 168.805C236.177 168.539 236.442 168.326 236.745 168.185C237.206 167.925 237.704 167.741 238.222 167.637L238.953 167.474C238.978 167.468 239.002 167.459 239.025 167.447C239.059 167.423 239.088 167.393 239.11 167.358C239.133 167.323 239.147 167.284 239.154 167.243L239.659 165.352C239.684 165.224 239.659 165.169 239.545 165.186L238.723 165.348C238.359 165.42 238.002 165.527 237.657 165.667V164.286C237.657 164.162 237.593 164.127 237.496 164.186L235.848 165.136C235.798 165.165 235.755 165.207 235.726 165.257C235.697 165.308 235.681 165.365 235.682 165.424V166.847C235.049 167.318 234.53 167.925 234.163 168.622C233.796 169.32 233.59 170.091 233.56 170.878C233.56 172.437 234.186 172.791 235.886 172.537L236.93 172.39C237.615 172.293 238.045 172.372 238.046 172.803C238.008 173.165 237.874 173.51 237.656 173.801C237.439 174.093 237.146 174.32 236.81 174.46C236.247 174.787 235.636 175.024 234.999 175.163L234.131 175.358C234.107 175.362 234.084 175.371 234.063 175.383C233.992 175.433 233.944 175.51 233.93 175.596L233.439 177.462C233.413 177.589 233.439 177.645 233.553 177.621L234.376 177.453C234.881 177.348 235.375 177.195 235.852 176.996V178.347C235.852 178.461 235.914 178.494 236.011 178.438L237.674 177.479C237.723 177.451 237.763 177.41 237.791 177.362C237.819 177.314 237.835 177.259 237.835 177.203V175.819C238.513 175.348 239.069 174.723 239.458 173.996C239.847 173.269 240.058 172.46 240.074 171.635Z" fill="#C76600"/>
<path d="M245.311 159.886C246.246 161.392 246.709 163.142 246.64 164.913C246.658 171.454 242.056 179.42 236.359 182.703C232.78 184.765 229.625 184.493 227.763 182.387C229.538 184.985 232.916 185.485 236.78 183.255C242.478 179.967 247.081 172.003 247.063 165.465C247.172 163.455 246.55 161.473 245.311 159.886Z" fill="#ED7A00"/>
<path d="M83.856 111.126L83.8845 121.1L90.6526 117.194L90.6241 107.22L83.856 111.126Z" fill="url(#paint41_linear_10_330)"/>
<path d="M96.2325 85.6554L96.3124 113.929L103.09 110.02L103.01 81.7473L96.2325 85.6554Z" fill="url(#paint42_linear_10_330)"/>
<path d="M108.719 94.6166L108.752 106.755L115.52 102.85L115.487 90.713L108.719 94.6166Z" fill="url(#paint43_linear_10_330)"/>
<path d="M121.104 71.3115L121.184 99.583L127.962 95.6737L127.882 67.3999L121.104 71.3115Z" fill="url(#paint44_linear_10_330)"/>
<path d="M140.263 44.2921L133.495 48.1968L133.62 92.4099L140.388 88.5041L140.263 44.2921Z" fill="url(#paint45_linear_10_330)"/>
<path d="M236.155 14.5415H229.75" stroke="white" stroke-miterlimit="10" stroke-linecap="round"/>
<path d="M232.953 11.3416V17.7403" stroke="white" stroke-miterlimit="10" stroke-linecap="round"/>
<path d="M113.036 29.6677L108.508 34.1928" stroke="white" stroke-miterlimit="10" stroke-linecap="round"/>
<path d="M108.508 29.6677L113.036 34.1928" stroke="white" stroke-miterlimit="10" stroke-linecap="round"/>
<path d="M276.813 180.709L268.608 178.49L274.633 172.501L276.813 180.709Z" stroke="white" stroke-linecap="round" stroke-linejoin="round"/>
<path d="M97.1832 234.04L94.1084 237.218L92.8906 232.967L97.1832 234.04Z" stroke="white" stroke-linecap="round" stroke-linejoin="round"/>
<path d="M179.392 229.892L177.397 233.097L180.603 235.089L182.598 231.885L179.392 229.892Z" stroke="white" stroke-width="0.999792" stroke-linecap="round" stroke-linejoin="round"/>
<path d="M274.836 122.391V117.976" stroke="white" stroke-linecap="round" stroke-linejoin="round"/>
<path d="M272.982 119.032L274.836 117.178L276.691 119.032" stroke="white" stroke-linecap="round" stroke-linejoin="round"/>
<path d="M279.083 123.224V127.639" stroke="white" stroke-linecap="round" stroke-linejoin="round"/>
<path d="M280.938 126.583L279.083 128.437L277.229 126.583" stroke="white" stroke-linecap="round" stroke-linejoin="round"/>
<path d="M158.016 1.02216L157.63 5.87339L161.436 8.91026L161.052 13.7615L164.86 16.8052L164.478 21.6644" stroke="white" stroke-linecap="round" stroke-linejoin="round"/>
<path d="M33.8324 201.968L38.5644 200.816L40.2627 196.254L44.9946 195.102L46.6975 190.541L51.4352 189.383" stroke="white" stroke-linecap="round" stroke-linejoin="round"/>
<path d="M247.751 229.565L248.565 234.362L252.999 236.378L253.813 241.177L258.249 243.197L259.07 248.002" stroke="white" stroke-linecap="round" stroke-linejoin="round"/>
<defs>
<linearGradient id="paint0_linear_10_330" x1="243.897" y1="31.6545" x2="231.924" y2="103.838" gradientUnits="userSpaceOnUse">
<stop stop-color="white"/>
<stop offset="1" stop-color="#E8EBFB"/>
</linearGradient>
<linearGradient id="paint1_linear_10_330" x1="148.158" y1="103.044" x2="157.364" y2="213.255" gradientUnits="userSpaceOnUse">
<stop stop-color="white"/>
<stop offset="1" stop-color="#E8EBFB"/>
</linearGradient>
<linearGradient id="paint2_linear_10_330" x1="225.791" y1="92.0843" x2="198.562" y2="222.214" gradientUnits="userSpaceOnUse">
<stop stop-color="#E8EBFB"/>
<stop offset="1" stop-color="#CED4ED"/>
</linearGradient>
<linearGradient id="paint3_linear_10_330" x1="203.08" y1="95.0342" x2="200.213" y2="137.127" gradientUnits="userSpaceOnUse">
<stop stop-color="#FF86A7"/>
<stop offset="1" stop-color="#FD8E71"/>
</linearGradient>
<linearGradient id="paint4_linear_10_330" x1="131.924" y1="117.832" x2="156.155" y2="117.832" gradientUnits="userSpaceOnUse">
<stop stop-color="#FFCC00"/>
<stop offset="1" stop-color="#FC8B00"/>
</linearGradient>
<linearGradient id="paint5_linear_10_330" x1="131.778" y1="119.462" x2="130.911" y2="132.067" gradientUnits="userSpaceOnUse">
<stop stop-color="#FF86A7"/>
<stop offset="1" stop-color="#FD8E71"/>
</linearGradient>
<linearGradient id="paint6_linear_10_330" x1="151.426" y1="129.085" x2="175.658" y2="129.085" gradientUnits="userSpaceOnUse">
<stop stop-color="#FFCC00"/>
<stop offset="1" stop-color="#FC8B00"/>
</linearGradient>
<linearGradient id="paint7_linear_10_330" x1="118.237" y1="127.333" x2="117.37" y2="139.929" gradientUnits="userSpaceOnUse">
<stop stop-color="#FF86A7"/>
<stop offset="1" stop-color="#FD8E71"/>
</linearGradient>
<linearGradient id="paint8_linear_10_330" x1="104.697" y1="135.176" x2="103.83" y2="147.791" gradientUnits="userSpaceOnUse">
<stop stop-color="#FF86A7"/>
<stop offset="1" stop-color="#FD8E71"/>
</linearGradient>
<linearGradient id="paint9_linear_10_330" x1="151.281" y1="130.721" x2="150.415" y2="143.317" gradientUnits="userSpaceOnUse">
<stop stop-color="#FF86A7"/>
<stop offset="1" stop-color="#FD8E71"/>
</linearGradient>
<linearGradient id="paint10_linear_10_330" x1="170.928" y1="140.329" x2="195.161" y2="140.329" gradientUnits="userSpaceOnUse">
<stop stop-color="#FFCC00"/>
<stop offset="1" stop-color="#FC8B00"/>
</linearGradient>
<linearGradient id="paint11_linear_10_330" x1="137.739" y1="138.563" x2="136.872" y2="151.18" gradientUnits="userSpaceOnUse">
<stop stop-color="#FF86A7"/>
<stop offset="1" stop-color="#FD8E71"/>
</linearGradient>
<linearGradient id="paint12_linear_10_330" x1="190.434" y1="149.451" x2="207.265" y2="149.451" gradientUnits="userSpaceOnUse">
<stop stop-color="#FFCC00"/>
<stop offset="1" stop-color="#FC8B00"/>
</linearGradient>
<linearGradient id="paint13_linear_10_330" x1="170.784" y1="141.968" x2="169.917" y2="154.568" gradientUnits="userSpaceOnUse">
<stop stop-color="#FF86A7"/>
<stop offset="1" stop-color="#FD8E71"/>
</linearGradient>
<linearGradient id="paint14_linear_10_330" x1="77.7518" y1="149.287" x2="101.982" y2="149.287" gradientUnits="userSpaceOnUse">
<stop stop-color="#FFCC00"/>
<stop offset="1" stop-color="#FC8B00"/>
</linearGradient>
<linearGradient id="paint15_linear_10_330" x1="124.2" y1="146.438" x2="123.333" y2="159.042" gradientUnits="userSpaceOnUse">
<stop stop-color="#FF86A7"/>
<stop offset="1" stop-color="#FD8E71"/>
</linearGradient>
<linearGradient id="paint16_linear_10_330" x1="176.891" y1="157.32" x2="193.717" y2="157.32" gradientUnits="userSpaceOnUse">
<stop stop-color="#FFCC00"/>
<stop offset="1" stop-color="#FC8B00"/>
</linearGradient>
<linearGradient id="paint17_linear_10_330" x1="157.243" y1="149.814" x2="156.376" y2="162.433" gradientUnits="userSpaceOnUse">
<stop stop-color="#FF86A7"/>
<stop offset="1" stop-color="#FD8E71"/>
</linearGradient>
<linearGradient id="paint18_linear_10_330" x1="110.657" y1="154.289" x2="109.79" y2="166.89" gradientUnits="userSpaceOnUse">
<stop stop-color="#FF86A7"/>
<stop offset="1" stop-color="#FD8E71"/>
</linearGradient>
<linearGradient id="paint19_linear_10_330" x1="163.345" y1="165.181" x2="180.177" y2="165.181" gradientUnits="userSpaceOnUse">
<stop stop-color="#FFCC00"/>
<stop offset="1" stop-color="#FC8B00"/>
</linearGradient>
<linearGradient id="paint20_linear_10_330" x1="143.702" y1="157.675" x2="142.835" y2="170.291" gradientUnits="userSpaceOnUse">
<stop stop-color="#FF86A7"/>
<stop offset="1" stop-color="#FD8E71"/>
</linearGradient>
<linearGradient id="paint21_linear_10_330" x1="207.094" y1="190.86" x2="211.109" y2="165.397" gradientUnits="userSpaceOnUse">
<stop stop-color="#FFCC00"/>
<stop offset="1" stop-color="#FC8B00"/>
</linearGradient>
<linearGradient id="paint22_linear_10_330" x1="207.113" y1="159.77" x2="218.491" y2="179.223" gradientUnits="userSpaceOnUse">
<stop stop-color="#FFCC00"/>
<stop offset="1" stop-color="#FC8B00"/>
</linearGradient>
<linearGradient id="paint23_linear_10_330" x1="207.094" y1="181.56" x2="211.108" y2="156.1" gradientUnits="userSpaceOnUse">
<stop stop-color="#FFCC00"/>
<stop offset="1" stop-color="#FC8B00"/>
</linearGradient>
<linearGradient id="paint24_linear_10_330" x1="207.113" y1="150.47" x2="218.49" y2="169.922" gradientUnits="userSpaceOnUse">
<stop stop-color="#FFCC00"/>
<stop offset="1" stop-color="#FC8B00"/>
</linearGradient>
<linearGradient id="paint25_linear_10_330" x1="207.094" y1="172.259" x2="211.109" y2="146.796" gradientUnits="userSpaceOnUse">
<stop stop-color="#FFCC00"/>
<stop offset="1" stop-color="#FC8B00"/>
</linearGradient>
<linearGradient id="paint26_linear_10_330" x1="207.113" y1="141.17" x2="218.491" y2="160.622" gradientUnits="userSpaceOnUse">
<stop stop-color="#FFCC00"/>
<stop offset="1" stop-color="#FC8B00"/>
</linearGradient>
<linearGradient id="paint27_linear_10_330" x1="207.094" y1="162.957" x2="211.108" y2="137.496" gradientUnits="userSpaceOnUse">
<stop stop-color="#FFCC00"/>
<stop offset="1" stop-color="#FC8B00"/>
</linearGradient>
<linearGradient id="paint28_linear_10_330" x1="207.113" y1="131.869" x2="218.492" y2="151.322" gradientUnits="userSpaceOnUse">
<stop stop-color="#FFCC00"/>
<stop offset="1" stop-color="#FC8B00"/>
</linearGradient>
<linearGradient id="paint29_linear_10_330" x1="179.478" y1="212.337" x2="183.492" y2="186.876" gradientUnits="userSpaceOnUse">
<stop stop-color="#FFCC00"/>
<stop offset="1" stop-color="#FC8B00"/>
</linearGradient>
<linearGradient id="paint30_linear_10_330" x1="179.498" y1="181.249" x2="190.873" y2="200.7" gradientUnits="userSpaceOnUse">
<stop stop-color="#FFCC00"/>
<stop offset="1" stop-color="#FC8B00"/>
</linearGradient>
<linearGradient id="paint31_linear_10_330" x1="179.478" y1="203.036" x2="183.493" y2="177.574" gradientUnits="userSpaceOnUse">
<stop stop-color="#FFCC00"/>
<stop offset="1" stop-color="#FC8B00"/>
</linearGradient>
<linearGradient id="paint32_linear_10_330" x1="179.498" y1="171.947" x2="190.876" y2="191.4" gradientUnits="userSpaceOnUse">
<stop stop-color="#FFCC00"/>
<stop offset="1" stop-color="#FC8B00"/>
</linearGradient>
<linearGradient id="paint33_linear_10_330" x1="179.478" y1="193.735" x2="183.492" y2="168.274" gradientUnits="userSpaceOnUse">
<stop stop-color="#FFCC00"/>
<stop offset="1" stop-color="#FC8B00"/>
</linearGradient>
<linearGradient id="paint34_linear_10_330" x1="179.498" y1="162.649" x2="190.876" y2="182.101" gradientUnits="userSpaceOnUse">
<stop stop-color="#FFCC00"/>
<stop offset="1" stop-color="#FC8B00"/>
</linearGradient>
<linearGradient id="paint35_linear_10_330" x1="220.796" y1="218.989" x2="224.81" y2="193.527" gradientUnits="userSpaceOnUse">
<stop stop-color="#FFCC00"/>
<stop offset="1" stop-color="#FC8B00"/>
</linearGradient>
<linearGradient id="paint36_linear_10_330" x1="220.816" y1="187.9" x2="232.192" y2="207.351" gradientUnits="userSpaceOnUse">
<stop stop-color="#FFCC00"/>
<stop offset="1" stop-color="#FC8B00"/>
</linearGradient>
<linearGradient id="paint37_linear_10_330" x1="220.796" y1="209.687" x2="224.81" y2="184.226" gradientUnits="userSpaceOnUse">
<stop stop-color="#FFCC00"/>
<stop offset="1" stop-color="#FC8B00"/>
</linearGradient>
<linearGradient id="paint38_linear_10_330" x1="220.816" y1="178.598" x2="232.194" y2="198.051" gradientUnits="userSpaceOnUse">
<stop stop-color="#FFCC00"/>
<stop offset="1" stop-color="#FC8B00"/>
</linearGradient>
<linearGradient id="paint39_linear_10_330" x1="232.383" y1="150.913" x2="228.848" y2="180.373" gradientUnits="userSpaceOnUse">
<stop stop-color="#FFCC00"/>
<stop offset="1" stop-color="#FC8B00"/>
</linearGradient>
<linearGradient id="paint40_linear_10_330" x1="222.791" y1="171.418" x2="250.712" y2="171.418" gradientUnits="userSpaceOnUse">
<stop stop-color="#FFCC00"/>
<stop offset="1" stop-color="#FC8B00"/>
</linearGradient>
<linearGradient id="paint41_linear_10_330" x1="87.2543" y1="71.3411" x2="87.2543" y2="113.633" gradientUnits="userSpaceOnUse">
<stop stop-color="#FFCC00"/>
<stop offset="1" stop-color="#FC8B00"/>
</linearGradient>
<linearGradient id="paint42_linear_10_330" x1="99.6611" y1="71.3525" x2="99.6611" y2="113.64" gradientUnits="userSpaceOnUse">
<stop stop-color="#FF86A7"/>
<stop offset="1" stop-color="#FD8E71"/>
</linearGradient>
<linearGradient id="paint43_linear_10_330" x1="112.119" y1="71.3504" x2="112.119" y2="113.637" gradientUnits="userSpaceOnUse">
<stop stop-color="#FFCC00"/>
<stop offset="1" stop-color="#FC8B00"/>
</linearGradient>
<linearGradient id="paint44_linear_10_330" x1="124.533" y1="71.3584" x2="124.533" y2="113.647" gradientUnits="userSpaceOnUse">
<stop stop-color="#FF86A7"/>
<stop offset="1" stop-color="#FD8E71"/>
</linearGradient>
<linearGradient id="paint45_linear_10_330" x1="136.942" y1="71.3343" x2="136.942" y2="113.63" gradientUnits="userSpaceOnUse">
<stop stop-color="#FFCC00"/>
<stop offset="1" stop-color="#FC8B00"/>
</linearGradient>
</defs>
</svg>
