<svg width="33" height="33" viewBox="0 0 33 33" fill="none" xmlns="http://www.w3.org/2000/svg">
<g opacity="0.6">
<path opacity="0.6" d="M1.28389 9.34217H4.45109C4.59093 9.34217 4.72505 9.28666 4.82394 9.18786C4.92283 9.08905 4.97838 8.95504 4.97838 8.81531V5.12271H8.67287C8.81272 5.12271 8.94684 5.06721 9.04572 4.9684C9.14461 4.86959 9.20016 4.73559 9.20016 4.59585V1.43012C9.20016 1.29039 9.14461 1.15638 9.04572 1.05757C8.94684 0.958768 8.81272 0.903259 8.67287 0.903259H1.28389C1.14404 0.903259 1.00992 0.958768 0.911038 1.05757C0.812151 1.15638 0.756597 1.29039 0.756597 1.43012V8.81303C0.756296 8.88241 0.769713 8.95116 0.796078 9.01535C0.822442 9.07953 0.861235 9.13789 0.910229 9.18705C0.959222 9.23622 1.01745 9.27523 1.08158 9.30185C1.1457 9.32847 1.21445 9.34217 1.28389 9.34217Z" fill="black"/>
<path opacity="0.6" d="M8.67299 28.3252H4.9785V24.6326C4.9785 24.4928 4.92295 24.3588 4.82406 24.26C4.72517 24.1612 4.59105 24.1057 4.45121 24.1057H1.28401C1.14416 24.1057 1.01004 24.1612 0.911155 24.26C0.812268 24.3588 0.756714 24.4928 0.756714 24.6326V32.0155C0.756714 32.1552 0.812268 32.2892 0.911155 32.388C1.01004 32.4869 1.14416 32.5424 1.28401 32.5424H8.67299C8.81284 32.5424 8.94696 32.4869 9.04585 32.388C9.14473 32.2892 9.20029 32.1552 9.20029 32.0155V28.852C9.20029 28.7123 9.14473 28.5783 9.04585 28.4795C8.94696 28.3807 8.81284 28.3252 8.67299 28.3252Z" fill="black"/>
<path opacity="0.6" d="M31.8946 0.903259H24.5056C24.4363 0.903259 24.3678 0.916887 24.3038 0.943364C24.2398 0.969842 24.1817 1.00865 24.1327 1.05757C24.0838 1.1065 24.0449 1.16458 24.0184 1.2285C23.9919 1.29242 23.9783 1.36093 23.9783 1.43012V4.59472C23.9783 4.6639 23.9919 4.73242 24.0184 4.79634C24.0449 4.86026 24.0838 4.91834 24.1327 4.96726C24.1817 5.01619 24.2398 5.055 24.3038 5.08147C24.3678 5.10795 24.4363 5.12158 24.5056 5.12158H28.2001V8.81304C28.2001 8.95277 28.2556 9.08678 28.3545 9.18558C28.4534 9.28439 28.5875 9.3399 28.7274 9.3399H31.8934C31.9627 9.3399 32.0312 9.32627 32.0952 9.29979C32.1592 9.27332 32.2173 9.23451 32.2663 9.18558C32.3152 9.13666 32.3541 9.07858 32.3806 9.01466C32.4071 8.95074 32.4207 8.88222 32.4207 8.81304V1.43012C32.4207 1.29059 32.3653 1.15675 32.2667 1.05798C32.168 0.959203 32.0342 0.903561 31.8946 0.903259V0.903259Z" fill="black"/>
<path opacity="0.6" d="M31.8946 24.1057H28.7285C28.6593 24.1057 28.5907 24.1193 28.5267 24.1458C28.4628 24.1723 28.4046 24.2111 28.3557 24.26C28.3067 24.3089 28.2679 24.367 28.2414 24.431C28.2149 24.4949 28.2012 24.5634 28.2012 24.6326V28.3252H24.5056C24.4363 28.3252 24.3678 28.3388 24.3038 28.3653C24.2398 28.3918 24.1817 28.4306 24.1327 28.4795C24.0838 28.5284 24.0449 28.5865 24.0184 28.6504C23.9919 28.7143 23.9783 28.7828 23.9783 28.852V32.0155C23.9783 32.0847 23.9919 32.1532 24.0184 32.2171C24.0449 32.281 24.0838 32.3391 24.1327 32.388C24.1817 32.437 24.2398 32.4758 24.3038 32.5023C24.3678 32.5287 24.4363 32.5424 24.5056 32.5424H31.8946C32.0344 32.5424 32.1685 32.4869 32.2674 32.388C32.3663 32.2892 32.4219 32.1552 32.4219 32.0155V24.6326C32.4219 24.4928 32.3663 24.3588 32.2674 24.26C32.1685 24.1612 32.0344 24.1057 31.8946 24.1057Z" fill="black"/>
<path opacity="0.6" d="M31.8945 16.1971H25.5613V8.28504C25.5613 8.21576 25.5476 8.14715 25.521 8.08316C25.4944 8.01916 25.4555 7.96103 25.4064 7.91209C25.3573 7.86315 25.2991 7.82437 25.235 7.79796C25.1708 7.77155 25.1022 7.75803 25.0328 7.75818H8.1411C8.00125 7.75818 7.86713 7.81369 7.76824 7.91249C7.66935 8.0113 7.6138 8.14531 7.6138 8.28504V16.1971H1.28397C1.14397 16.1971 1.00971 16.2527 0.910712 16.3516C0.811718 16.4505 0.756104 16.5846 0.756104 16.7245C0.756104 16.8644 0.811718 16.9986 0.910712 17.0975C1.00971 17.1964 1.14397 17.252 1.28397 17.252H7.61722V25.1617C7.61722 25.3015 7.67278 25.4355 7.77167 25.5343C7.87055 25.6331 8.00467 25.6886 8.14452 25.6886H25.0328C25.1727 25.6886 25.3068 25.6331 25.4057 25.5343C25.5046 25.4355 25.5601 25.3015 25.5601 25.1617V17.2497H31.8934C32.0334 17.2497 32.1676 17.1941 32.2666 17.0952C32.3656 16.9963 32.4212 16.8621 32.4212 16.7222C32.4212 16.5824 32.3656 16.4482 32.2666 16.3493C32.1676 16.2504 32.0334 16.1948 31.8934 16.1948L31.8945 16.1971ZM24.5055 24.636H8.67296V17.2497H24.5055V24.636Z" fill="black"/>
</g>
</svg>
