<svg width="26" height="27" viewBox="0 0 26 27" fill="none" xmlns="http://www.w3.org/2000/svg">
<path d="M24.9955 23.2158H0.532106C0.391047 23.2158 0.255766 23.2718 0.156023 23.3714C0.0562794 23.4711 0.000244141 23.6063 0.000244141 23.7472C0.00115014 24.4517 0.281617 25.127 0.780138 25.6251C1.27866 26.1232 1.95454 26.4035 2.65955 26.4044H22.8692C23.5742 26.4035 24.25 26.1232 24.7486 25.6251C25.2471 25.127 25.5276 24.4517 25.5285 23.7472C25.5285 23.6773 25.5147 23.6081 25.4879 23.5436C25.4611 23.479 25.4218 23.4204 25.3723 23.371C25.3228 23.3217 25.264 23.2826 25.1993 23.2559C25.1347 23.2293 25.0654 23.2156 24.9955 23.2158ZM22.868 25.3415H2.65955C2.32968 25.3412 2.008 25.2388 1.73867 25.0485C1.46933 24.8582 1.26554 24.5893 1.15527 24.2787H24.3734C24.2632 24.5893 24.0594 24.8582 23.79 25.0485C23.5207 25.2388 23.199 25.3412 22.8692 25.3415H22.868Z" fill="#6FEDD6"/>
<path d="M3.1937 7.27426C2.76992 7.27426 2.36349 7.44247 2.06383 7.74188C1.76417 8.04129 1.59583 8.44737 1.59583 8.87081V23.7495H2.65955V8.87081C2.65955 8.72986 2.71559 8.59471 2.81533 8.49505C2.91507 8.39539 3.05035 8.3394 3.19141 8.3394H4.25514V7.27426H3.1937Z" fill="#6FEDD6"/>
<path d="M22.3384 7.27426H21.2747V8.33712H22.3384C22.4794 8.33712 22.6147 8.39309 22.7145 8.49275C22.8142 8.59241 22.8703 8.72759 22.8703 8.86853V23.7473H23.9362V8.87081C23.9362 8.44738 23.7679 8.04129 23.4682 7.74188C23.1686 7.44247 22.7622 7.27426 22.3384 7.27426Z" fill="#6FEDD6"/>
<path d="M14.8913 23.7473H10.6364V24.8101H14.8913V23.7473Z" fill="#6FEDD6"/>
<path d="M18.6142 0.897187H10.1044C9.96349 0.897496 9.82843 0.953688 9.72893 1.05342L5.46947 5.30367C5.36966 5.40309 5.31342 5.53803 5.31311 5.67886V18.433C5.31311 18.6427 5.35444 18.8503 5.43474 19.044C5.51504 19.2377 5.63274 19.4137 5.78111 19.562C5.92949 19.7102 6.10564 19.8278 6.2995 19.908C6.49336 19.9883 6.70114 20.0296 6.91098 20.0296H11.1659V18.9667H6.91098C6.76992 18.9667 6.63464 18.9107 6.53489 18.8111C6.43515 18.7114 6.37911 18.5762 6.37911 18.4353V5.90009L10.3258 1.96003H18.6154C18.7564 1.96003 18.8917 2.01602 18.9914 2.11568C19.0912 2.21535 19.1472 2.35051 19.1472 2.49146V18.433C19.1472 18.574 19.0912 18.7091 18.9914 18.8088C18.8917 18.9085 18.7564 18.9644 18.6154 18.9644H14.3605V20.0273H18.6154C19.0391 20.0273 19.4456 19.8591 19.7452 19.5597C20.0449 19.2603 20.2132 18.8542 20.2132 18.4307V2.49374C20.2132 2.28398 20.1719 2.07628 20.0915 1.8825C20.0111 1.68872 19.8933 1.51267 19.7448 1.3644C19.5963 1.21613 19.42 1.09856 19.226 1.01839C19.0321 0.938222 18.8241 0.897037 18.6142 0.897187Z" fill="#6FEDD6"/>
<path d="M9.57601 1.42858V4.6217C9.57601 4.76264 9.51999 4.89781 9.42025 4.99747C9.3205 5.09713 9.18522 5.15312 9.04416 5.15312H7.97815V6.21597H9.04188C9.46566 6.21597 9.87208 6.04776 10.1717 5.74835C10.4714 5.44894 10.6397 5.04285 10.6397 4.61942V1.4263L9.57601 1.42858Z" fill="#6FEDD6"/>
<path d="M13.1393 11.1493C13.0652 11.0732 12.9701 11.0211 12.8661 10.9995C12.7621 10.978 12.654 10.988 12.5558 11.0284C12.4575 11.0688 12.3736 11.1376 12.3149 11.226C12.2562 11.3144 12.2253 11.4184 12.2262 11.5245V22.1519H13.2899V12.8086L15.5726 15.0894L16.3248 14.3379L13.1393 11.1493Z" fill="#6FEDD6"/>
<path d="M12.3882 11.1494L9.19714 14.3379L9.94931 15.0894L13.1404 11.901L12.3882 11.1494Z" fill="#6FEDD6"/>
<path d="M18.0824 3.02289H17.0187V4.08572H18.0824V3.02289Z" fill="#6FEDD6"/>
<path d="M15.955 3.02289H14.8912V4.08572H15.955V3.02289Z" fill="#6FEDD6"/>
<path d="M18.0824 5.14856H17.0187V6.21143H18.0824V5.14856Z" fill="#6FEDD6"/>
</svg>
